<?xml version="1.0" encoding="utf-8"?>
<!-- Generator: Adobe Illustrator 24.2.1, SVG Export Plug-In . SVG Version: 6.00 Build 0)  -->
<svg version="1.1" id="Layer_1" xmlns="http://www.w3.org/2000/svg" xmlns:xlink="http://www.w3.org/1999/xlink" x="0px" y="0px"
	 viewBox="0 0 200 200" style="enable-background:new 0 0 200 200;" xml:space="preserve">
<style type="text/css">
	.st0{fill:#191919;}
	.st1{fill:#009687;}
	.st2{fill:#242B37;}
</style>
<g id="Layer_2_1_">
	<g id="Layer_1-2">
		<path class="st0" d="M93.5,26h-29c-3.1,0-5.6,2.6-5.6,5.6v29.1c0,3.1,2.5,5.6,5.6,5.6h34.7V31.7C99.3,28.6,96.7,26,93.5,26z
			 M86.2,46.2c0,0.4-0.3,0.6-0.6,0.6l0,0h-5c-0.4,0-0.7,0.3-0.7,0.7l0,0v5c0,0.4-0.4,0.6-0.7,0.6c-0.4,0-0.6-0.3-0.6-0.6v-5
			c0-0.4-0.3-0.7-0.6-0.7l0,0h-5c-0.4,0-0.7-0.3-0.7-0.6l0,0c0-0.4,0.3-0.7,0.7-0.6h5c0.4,0,0.6-0.3,0.6-0.7l0,0v-5
			c0-0.4,0.4-0.6,0.7-0.6s0.6,0.3,0.6,0.6v5c0,0.4,0.3,0.7,0.7,0.7l0,0h5C85.9,45.5,86.2,45.8,86.2,46.2L86.2,46.2L86.2,46.2z"/>
		<path class="st0" d="M64.6,67.9c-3.1,0-5.6,2.6-5.6,5.6l0,0v29.1c0,3.1,2.5,5.6,5.6,5.6l0,0h28.9c3.1,0,5.6-2.6,5.6-5.6l0,0V67.9
			H64.6z M85.4,88.9H72.7c-0.5-0.1-0.7-0.6-0.6-1c0.1-0.4,0.4-0.6,0.6-0.6h12.7c0.5-0.1,0.9,0.2,1,0.6c0.1,0.5-0.2,0.9-0.6,1
			C85.7,88.9,85.5,88.9,85.4,88.9z"/>
		<path class="st1" d="M123.5,26h-17c-3.1,0-5.6,2.6-5.6,5.6v34.8h22.7c9.8,0,17.7-8,17.7-17.8v-5C141.2,33.9,133.3,26,123.5,26z
			 M132.1,47.6c0,5.4-4.3,9.7-9.7,9.7H110V35.1h12.4c5.4,0,9.7,4.3,9.7,9.7V47.6z M123.5,67.9h-22.7v34.8c0,3.1,2.5,5.6,5.6,5.6l0,0
			h17c9.8,0,17.7-8,17.7-17.8v-5C141.2,75.8,133.3,67.9,123.5,67.9z M132.1,89.5c0,5.4-4.3,9.7-9.7,9.7H110V77h12.4
			c5.4,0,9.7,4.3,9.7,9.7V89.5z M120.1,89.6l-3.6,3.6c-0.3,0.3-0.7,0.3-1,0l0,0l0,0c-0.3-0.3-0.3-0.7,0-1l3.5-3.6
			c0.3-0.3,0.3-0.7,0-1l0,0l-3.5-3.6c-0.3-0.3-0.3-0.7,0-1l0,0c0.3-0.3,0.7-0.3,1,0l3.5,3.6c0.3,0.3,0.7,0.3,1,0l0,0l3.5-3.6
			c0.3-0.3,0.7-0.3,1,0l0,0c0.3,0.3,0.3,0.7,0,1l-3.6,3.6c-0.3,0.3-0.3,0.7,0,1l3.6,3.6c0.3,0.3,0.3,0.7,0,1l0,0
			c-0.3,0.3-0.7,0.3-1,0l0,0l-3.6-3.6C120.8,89.3,120.3,89.3,120.1,89.6L120.1,89.6z M120,42.9c0-0.6,0.5-1,1-1c0.6,0,1,0.5,1,1
			s-0.5,1-1,1C120.4,44,120,43.5,120,42.9L120,42.9L120,42.9z M128.1,46.2c0,0.5-0.4,0.8-0.8,0.8h-12.7c-0.5,0-0.8-0.4-0.8-0.8
			c0-0.5,0.4-0.8,0.8-0.8l0,0h12.7C127.7,45.4,128.1,45.8,128.1,46.2L128.1,46.2z M122,49.6c0,0.6-0.5,1-1,1c-0.6,0-1-0.5-1-1
			s0.5-1,1-1C121.5,48.5,122,49,122,49.6L122,49.6z"/>
		<path class="st1" d="M30,126.6h10.4c4.4,0,7.4,2.3,7.5,6.1c0,3.1-1.8,4.9-4.3,5.5v0.2c3.1,0.3,5.5,2.3,5.6,6.1
			c0,4.4-3.6,7.1-8.7,7.1l-10.4,0.1L30,126.6z M35,136.9h3.2c3.3,0,4.8-1.3,4.8-3.4c0-2-1.4-3.3-3.7-3.2h-4.4L35,136.9z M35.1,147.9
			h3.7c3.9,0,5.5-1.3,5.5-3.7c0-2.4-1.7-3.8-4.4-3.8h-4.7L35.1,147.9L35.1,147.9z"/>
		<path class="st1" d="M72.4,134.3c0.1,3.1-1.7,5.9-4.5,7l5.1,10.1h-5.5L63,142h-4.4v9.3h-4.9l-0.2-25.1h10
			C69.6,126.3,72.4,129.8,72.4,134.3z M62.9,138.3c2.8,0,4.4-1.4,4.4-4c0-2.8-1.8-4.1-4.4-4.1h-4.4v8.1L62.9,138.3z"/>
		<path class="st1" d="M82,142.2c0,3.4,2.1,5.4,5.2,5.4s5.2-2,5.1-5.5l-0.1-15.9h5l0.1,16.6c0,5.3-3.8,9-10.1,9
			c-6.3,0-10.2-3.6-10.2-8.9l-0.1-16.6h5L82,142.2z"/>
		<path class="st1" d="M106.1,144.1c0.2,1.9,1.9,3.7,5.2,3.6c3.1,0,4.7-1.4,4.7-3.5c0-1.8-1.3-2.7-3.9-3.2l-3.9-0.9
			c-3.4-0.7-6.4-2.7-6.4-6.8c0-4.9,4.2-7.6,9.3-7.7c5.4,0,9.2,2.9,9.3,7.4h-4.6c-0.2-1.8-1.7-3.5-4.7-3.5c-2.7,0-4.3,1.3-4.3,3.3
			c0,1.5,1.2,2.5,3.4,3l3.9,0.9c3.7,0.7,6.8,2.6,6.8,7c0,4.9-3.9,7.9-9.9,7.9c-7.2,0-9.6-4.1-9.8-7.6L106.1,144.1z"/>
		<path class="st1" d="M136.6,136.8L146,151h-6l-7.1-10.9l-2.6,3v8h-5l-0.2-25.1h5l0.1,11.2h0.2l9.4-11.3h5.5L136.6,136.8z"/>
		<path class="st1" d="M147.4,150.9l8.2-25.1h5.8l8.5,25h-5.3l-2-6.5h-8.3l-1.9,6.5L147.4,150.9z M158.4,130.6l-3,10.2h6.3
			l-3.1-10.1L158.4,130.6L158.4,130.6z"/>
		<path class="st2" d="M38,167.9h-4.8l-1.1,3h-0.9l4-10.6h0.8l4,10.6H39L38,167.9z M33.4,167.2h4.3l-2.1-5.7L33.4,167.2z"/>
		<path class="st2" d="M44.3,170.3c0.6,0,1.1-0.2,1.6-0.6c0.4-0.4,0.6-0.8,0.6-1.3h0.8c0,0.5-0.2,0.9-0.5,1.3
			c-0.3,0.4-0.6,0.7-1.1,0.9s-1,0.4-1.5,0.4c-0.9,0-1.8-0.4-2.5-1.1c-0.6-0.8-1-1.8-0.9-2.9v-0.3c0-0.7,0.1-1.4,0.5-2
			c0.3-0.6,0.6-1.1,1.1-1.4c0.6-0.4,1.1-0.6,1.8-0.5c0.7,0,1.6,0.3,2.1,0.7c0.6,0.6,0.9,1.3,0.9,2h-0.8c0-0.6-0.3-1.1-0.6-1.5
			c-1-0.8-2.5-0.7-3.3,0.3l0,0c-0.5,0.6-0.7,1.6-0.6,2.4v0.3c0,0.8,0.2,1.7,0.6,2.3C42.9,170,43.6,170.3,44.3,170.3z"/>
		<path class="st2" d="M52,170.3c0.6,0,1.1-0.2,1.6-0.6c0.4-0.4,0.6-0.8,0.6-1.3h0.8c0,0.5-0.2,0.9-0.5,1.3
			c-0.3,0.4-0.6,0.7-1.1,0.9c-0.5,0.2-1,0.4-1.5,0.4c-0.9,0-1.8-0.4-2.5-1.1c-0.6-0.8-1-1.8-0.9-2.9v-0.3c0-0.7,0.1-1.4,0.5-2
			c0.3-0.6,0.6-1.1,1.1-1.4c0.6-0.4,1.1-0.6,1.8-0.5c0.7,0,1.6,0.3,2.1,0.7c0.6,0.6,0.9,1.3,0.9,2h-0.8c0-0.6-0.3-1.1-0.6-1.5
			c-1-0.8-2.5-0.7-3.3,0.3l0,0c-0.5,0.6-0.7,1.6-0.6,2.4v0.3c0,0.8,0.2,1.7,0.6,2.3C50.6,170,51.4,170.3,52,170.3z"/>
		<path class="st2" d="M56.4,166.9c0-0.7,0.1-1.4,0.5-2c0.6-1.2,1.8-1.9,3.1-1.9c1,0,1.9,0.4,2.6,1.1c0.6,0.8,1,1.8,1,3v0.2
			c0,0.7-0.1,1.4-0.5,2c-0.3,0.6-0.6,1.1-1.2,1.4c-0.6,0.4-1.2,0.6-1.8,0.6c-1,0-1.9-0.4-2.6-1.1c-0.6-0.8-1-1.8-1-3V166.9z
			 M57.2,167.1c0,0.8,0.2,1.7,0.7,2.3c0.8,1.1,2.4,1.2,3.5,0.4c0.1-0.1,0.3-0.2,0.4-0.4c0.6-0.6,0.7-1.6,0.7-2.4v-0.2
			c0-0.6-0.1-1.1-0.4-1.7c-0.2-0.5-0.6-0.8-0.9-1.1c-0.5-0.3-0.9-0.5-1.4-0.5c-0.7,0-1.5,0.4-1.9,0.9c-0.6,0.6-0.7,1.6-0.7,2.4
			V167.1z"/>
		<path class="st2" d="M70.3,170c-0.6,0.7-1.4,1.1-2.5,1.1c-0.7,0-1.4-0.2-1.9-0.7c-0.5-0.6-0.7-1.4-0.6-2.2V163h0.8v5
			c0,1.5,0.6,2.2,1.8,2.2s2-0.6,2.4-1.6v-5.7h0.8v7.9h-0.8V170z"/>
		<path class="st2" d="M74.3,163v1.4c0.3-0.5,0.6-0.8,1.1-1.1c0.5-0.3,0.9-0.4,1.5-0.4c0.6,0,1.4,0.2,1.8,0.7
			c0.5,0.6,0.6,1.4,0.6,2.1v5.2h-0.8v-5.3c0-0.6-0.1-1.1-0.5-1.6c-0.4-0.4-0.9-0.6-1.4-0.6c-0.6,0-1,0.2-1.5,0.6s-0.7,0.8-0.9,1.4
			v5.5h-0.8v-7.9L74.3,163L74.3,163z"/>
		<path class="st2" d="M83,161v2h1.7v0.7H83v5.3c0,0.4,0,0.6,0.3,1c0.2,0.2,0.5,0.4,0.8,0.4c0.3,0,0.5,0,0.7-0.1v0.7
			c-0.3,0.1-0.6,0.1-0.9,0.1c-0.6,0-1-0.1-1.3-0.6c-0.3-0.5-0.5-1-0.5-1.6v-5.3h-1.5V163h1.5v-2H83z"/>
		<path class="st2" d="M86.5,160.8c0-0.3,0.2-0.6,0.6-0.6c0,0,0,0,0.1,0c0.3,0,0.6,0.2,0.6,0.6l0,0c0,0.2,0,0.3-0.2,0.5
			c-0.2,0.2-0.3,0.2-0.5,0.2s-0.3,0-0.5-0.2C86.5,161.1,86.5,160.9,86.5,160.8z M87.5,170.9h-0.8V163h0.8V170.9z"/>
		<path class="st2" d="M90.7,163v1.4c0.3-0.5,0.6-0.8,1.1-1.1c0.5-0.3,0.9-0.4,1.5-0.4c0.7,0,1.4,0.2,1.8,0.7s0.6,1.4,0.6,2.1v5.2
			h-0.8v-5.3c0-0.6-0.1-1.1-0.5-1.6c-0.4-0.4-0.9-0.6-1.4-0.6c-0.6,0-1,0.2-1.5,0.6c-0.5,0.4-0.7,0.8-0.9,1.4v5.5h-0.8v-7.9
			L90.7,163L90.7,163z"/>
		<path class="st2" d="M97.8,166.9c0-1,0.2-2.1,0.8-3c0.6-0.7,1.4-1.1,2.2-1.1c1,0,1.9,0.5,2.4,1.3V163h0.8v7.7
			c0,0.9-0.3,1.8-0.8,2.4c-0.6,0.6-1.5,0.9-2.3,0.9c-0.6,0-1.1-0.1-1.6-0.4c-0.5-0.2-0.9-0.6-1.2-1l0.5-0.6c0.6,0.7,1.3,1.1,2.2,1.1
			c0.6,0,1.2-0.2,1.7-0.6c0.5-0.6,0.6-1.1,0.6-1.8v-1c-0.6,0.7-1.5,1.2-2.4,1.1c-0.8,0-1.7-0.4-2.2-1.1
			C98,168.9,97.6,167.8,97.8,166.9L97.8,166.9z M98.6,167c0,0.8,0.2,1.7,0.6,2.4c0.4,0.6,1,0.9,1.7,0.8c1,0,1.9-0.6,2.3-1.5v-3.7
			c-0.2-0.5-0.5-0.8-0.9-1.1c-0.5-0.3-0.9-0.5-1.4-0.4c-0.6,0-1.3,0.3-1.7,0.8C98.8,165.2,98.6,166.2,98.6,167z"/>
		<path class="st2" d="M116.3,168.3c0-0.6-0.2-1.1-0.6-1.4c-0.6-0.5-1.5-0.8-2.2-1c-0.8-0.2-1.7-0.6-2.4-1c-1.1-0.7-1.4-2.2-0.6-3.4
			c0.2-0.2,0.4-0.5,0.6-0.6c0.7-0.6,1.7-0.8,2.6-0.7c0.6,0,1.3,0.1,1.8,0.5c0.6,0.3,1,0.6,1.3,1.1c0.3,0.5,0.5,1.1,0.5,1.7h-0.9
			c0-0.6-0.3-1.3-0.7-1.8c-0.6-0.5-1.3-0.6-2-0.6c-0.6,0-1.4,0.2-1.9,0.6c-0.5,0.4-0.7,0.8-0.7,1.4c0,0.6,0.2,1,0.6,1.3
			c0.6,0.5,1.3,0.7,2.1,0.9c0.7,0.2,1.5,0.5,2.2,0.8c0.5,0.3,0.8,0.6,1.1,1c0.3,0.5,0.4,0.9,0.4,1.4c0,0.8-0.4,1.6-1,2
			c-0.7,0.6-1.7,0.8-2.7,0.7c-0.7,0-1.4-0.1-2-0.4c-0.6-0.2-1.1-0.6-1.4-1.1c-0.4-0.5-0.6-1.1-0.5-1.7h0.9c0,0.6,0.3,1.4,0.8,1.8
			c0.6,0.5,1.5,0.6,2.2,0.6c0.6,0,1.4-0.2,2-0.6C116,169.4,116.3,168.8,116.3,168.3z"/>
		<path class="st2" d="M118.5,166.9c0-0.7,0.1-1.4,0.5-2c0.6-1.2,1.8-1.9,3.1-1.9c1,0,1.9,0.4,2.6,1.1c0.6,0.8,1,1.8,1,3v0.2
			c0,0.7-0.1,1.4-0.5,2c-0.3,0.6-0.6,1.1-1.2,1.4c-0.6,0.4-1.2,0.6-1.8,0.6c-1,0-1.9-0.4-2.6-1.1c-0.6-0.8-1-1.8-1-3V166.9z
			 M119.3,167.1c0,0.8,0.2,1.7,0.7,2.3c0.8,1.1,2.4,1.2,3.5,0.4c0.1-0.1,0.3-0.2,0.4-0.4c0.6-0.6,0.7-1.6,0.7-2.4v-0.2
			c0-0.6-0.1-1.1-0.4-1.7c-0.2-0.5-0.6-0.8-0.9-1.1c-0.5-0.3-0.9-0.5-1.4-0.5c-0.7,0-1.5,0.4-1.9,0.9c-0.6,0.6-0.7,1.6-0.7,2.4
			C119.3,166.9,119.3,167.1,119.3,167.1z"/>
		<path class="st2" d="M128.3,170.9h-0.8v-11.2h0.8V170.9z"/>
		<path class="st2" d="M135.8,170c-0.6,0.7-1.4,1.1-2.5,1.1c-0.7,0-1.4-0.2-1.9-0.7c-0.5-0.6-0.7-1.4-0.6-2.2V163h0.8v5
			c0,1.5,0.6,2.2,1.8,2.2c1.3,0,2-0.6,2.4-1.6v-5.7h0.8v7.9h-0.8V170z"/>
		<path class="st2" d="M140.3,161v2h1.7v0.7h-1.7v5.3c0,0.4,0,0.6,0.3,1c0.2,0.2,0.5,0.4,0.7,0.4s0.5,0,0.7-0.1v0.7
			c-0.3,0.1-0.6,0.1-0.9,0.1c-0.6,0-1-0.1-1.3-0.6c-0.3-0.5-0.5-1-0.5-1.6v-5.3h-1.5V163h1.5v-2H140.3z"/>
		<path class="st2" d="M143.7,160.8c0-0.2,0-0.3,0.2-0.5c0.1-0.1,0.3-0.2,0.5-0.2c0.3,0,0.6,0.2,0.6,0.6l0,0c0,0.2,0,0.3-0.2,0.5
			c-0.1,0.1-0.3,0.2-0.5,0.2C144,161.4,143.7,161.2,143.7,160.8L143.7,160.8L143.7,160.8z M144.8,170.9h-0.8V163h0.8V170.9z"/>
		<path class="st2" d="M146.7,166.9c0-0.7,0.1-1.4,0.5-2c0.6-1.2,1.8-1.9,3.1-1.9c1,0,1.9,0.4,2.6,1.1c0.6,0.8,1,1.8,1,3v0.2
			c0,0.7-0.1,1.4-0.5,2c-0.3,0.6-0.6,1.1-1.2,1.4c-0.6,0.4-1.2,0.6-1.8,0.6c-1,0-1.9-0.4-2.6-1.1c-0.6-0.8-1-1.8-1-3V166.9z
			 M147.5,167.1c0,0.8,0.2,1.7,0.7,2.3c0.8,1.1,2.4,1.2,3.5,0.4c0.1-0.1,0.3-0.2,0.4-0.4c0.6-0.6,0.7-1.6,0.7-2.4v-0.2
			c0-0.6-0.1-1.1-0.4-1.7c-0.2-0.5-0.6-0.8-0.9-1.1c-0.5-0.3-0.9-0.5-1.4-0.5c-0.7,0-1.5,0.4-1.9,0.9c-0.6,0.6-0.7,1.6-0.7,2.4
			V167.1z"/>
		<path class="st2" d="M156.4,163v1.4c0.3-0.5,0.6-0.8,1.1-1.1c0.5-0.3,0.9-0.4,1.5-0.4c0.6,0,1.4,0.2,1.8,0.6
			c0.5,0.6,0.6,1.4,0.6,2.1v5.2h-0.8v-5.2c0-0.6-0.1-1.1-0.5-1.6c-0.4-0.4-0.9-0.6-1.4-0.6c-0.6,0-1,0.2-1.5,0.6s-0.7,0.8-0.9,1.4
			v5.5h-0.8v-7.9L156.4,163L156.4,163z"/>
		<path class="st2" d="M168.5,168.9c0-0.5-0.2-0.8-0.6-1c-0.5-0.3-1-0.6-1.6-0.6c-0.6-0.1-1.1-0.3-1.7-0.6c-0.4-0.2-0.6-0.4-0.8-0.6
			c-0.2-0.3-0.3-0.6-0.3-1c0-0.6,0.3-1.2,0.7-1.6c0.6-0.5,1.3-0.6,2-0.6c0.7,0,1.6,0.2,2.1,0.6c0.6,0.5,0.8,1,0.8,1.7h-0.9
			c0-0.5-0.2-0.9-0.6-1.1c-0.8-0.6-1.9-0.6-2.9-0.1c-0.4,0.2-0.6,0.6-0.6,1c0,0.4,0.1,0.6,0.5,0.9c0.5,0.3,1,0.6,1.6,0.6
			c0.6,0.1,1.1,0.3,1.7,0.6c0.4,0.2,0.6,0.5,0.8,0.7c0.6,0.9,0.3,2-0.6,2.7c-0.6,0.5-1.4,0.6-2.1,0.6c-0.8,0-1.6-0.2-2.2-0.6
			c-0.6-0.4-0.8-1-0.8-1.7h0.8c0,0.5,0.3,0.9,0.6,1.2c0.5,0.3,1,0.5,1.6,0.5c0.6,0,1-0.1,1.5-0.4
			C168.3,169.7,168.5,169.3,168.5,168.9z"/>
	</g>
</g>
</svg>
