<?xml version="1.0" encoding="utf-8"?>
<!-- Generator: Adobe Illustrator 24.2.1, SVG Export Plug-In . SVG Version: 6.00 Build 0)  -->
<svg version="1.1" id="Layer_1" xmlns="http://www.w3.org/2000/svg" xmlns:xlink="http://www.w3.org/1999/xlink" x="0px" y="0px"
	 viewBox="0 0 700 700" style="enable-background:new 0 0 700 700;" xml:space="preserve">
<style type="text/css">
	.st0{stroke:#000000;stroke-miterlimit:10;}
	.st1{fill:#FFFFFF;}
	.st2{fill:#7FB414;}
</style>
<rect x="0.7" y="1.2" class="st0" width="700" height="700"/>
<g transform="translate(425 -281)">
	<path class="st1" d="M-278.4,495.2v34.4l-70.6,36.8l70.6,36.8v34.2l-108-56.2v-29.7L-278.4,495.2z"/>
	<path class="st1" d="M236.5,551.4v29.7l-108,56.3v-34.3l70.7-36.8l-70.7-36.8v-34.4L236.5,551.4z"/>
	<path class="st1" d="M-228.2,503.4v62.8l62.6-62.8h36.7l-62.6,62.9l62.7,62.9h-36.8l-44.3-44.5l-18.3,18.3v26.1h-24.9V503.4H-228.2
		z"/>
	<rect x="6.8" y="539.4" class="st2" width="31.4" height="89.8"/>
	<path class="st2" d="M-40.2,503.4l-31,31.4H85.3l31.5-31.5L-40.2,503.4z"/>
	<path class="st2" d="M-124.4,627.1l87.5-87.7h-38.8l-68.1,68.2L-124.4,627.1z"/>
	<path class="st1" d="M48.4,713.2H24.3c-1.5,0-3.1,0.1-4.6,0.3c-1.1,0.1-2.1,0.5-3,1.1c-0.8,0.7-1.4,1.5-1.6,2.5
		c-0.4,1.5-0.5,3-0.5,4.5v2.8h39.8v-6.9c0.2-1.4-0.3-2.7-1.3-3.6C51.6,713.3,50,713,48.4,713.2L48.4,713.2z"/>
	<path class="st1" d="M-170.5,713.2h-24.2c-1.5,0-3.1,0.1-4.6,0.3c-1.1,0.1-2.1,0.5-3,1.1c-0.8,0.7-1.4,1.5-1.6,2.5
		c-0.4,1.5-0.5,3-0.5,4.5v2.8h39.8v-6.9c0.2-1.4-0.3-2.7-1.3-3.6C-167.4,713.3-169,713.1-170.5,713.2z"/>
	<path class="st1" d="M-385.9,673.3v93.5h621.7v-93.5H-385.9z M-352.9,754.9h-14.7v-66.6h14.8V718l29.7-29.7h22.2l-52,52
		L-352.9,754.9z M-316.1,754.9l-25.5-25.8l11.4-11.4l36.4,37.2H-316.1z M-246.9,754.9c-3.1,0-5.5-2.5-5.5-5.6c0-3.1,2.5-5.5,5.6-5.5
		c3.1,0,5.5,2.5,5.5,5.6C-241.4,752.4-243.9,754.9-246.9,754.9L-246.9,754.9z M-226.5,733.8h-54.2v2.5c0,1.3,0.1,2.6,0.4,3.9
		c0.2,0.9,0.7,1.7,1.4,2.3c0.8,0.6,1.8,1,2.7,1.1c1.4,0.2,2.8,0.3,4.2,0.3h17.1v10.9H-272c-6.4,0.6-12.8-1.1-18.1-4.8
		c-3.9-4.1-5.9-9.7-5.4-15.3v-12.1c-0.1-3.3,0.3-6.5,1.2-9.7c0.6-2.5,2-4.7,3.9-6.4c2.1-1.8,4.6-3,7.2-3.6c3.8-0.8,7.7-1.2,11.6-1.1
		h25.5c3.2-0.1,6.3,0.3,9.4,1.1c2.2,0.5,4.2,1.6,5.9,3c1.5,1.2,2.7,2.9,3.3,4.8c0.6,1.9,0.9,3.8,0.9,5.8L-226.5,733.8z
		 M-170.6,755.3c-3.1,0-5.6-2.5-5.6-5.6c0-3.1,2.5-5.6,5.6-5.6c3.1,0,5.6,2.5,5.6,5.6c0,0,0,0,0,0
		C-165,752.8-167.5,755.3-170.6,755.3L-170.6,755.3z M-150.1,733.8h-54.2v2.5c0,1.3,0.1,2.6,0.4,3.9c0.2,0.9,0.7,1.7,1.4,2.3
		c0.8,0.6,1.7,1,2.7,1.1c1.4,0.2,2.8,0.3,4.2,0.3h17.2v10.9h-17.2c-6.4,0.6-12.8-1.1-18.1-4.8c-3.9-4.1-5.8-9.7-5.3-15.3v-12.1
		c-0.1-3.3,0.3-6.5,1.1-9.7c0.6-2.5,2-4.7,3.9-6.4c2.1-1.8,4.6-3,7.2-3.6c3.9-0.7,7.9-1,11.9-0.9h25.3c3.2-0.1,6.3,0.3,9.4,1.1
		c2.2,0.6,4.2,1.6,5.9,3c1.4,1.2,2.5,2.8,3,4.6c0.6,1.9,0.9,3.8,0.9,5.8L-150.1,733.8z M-74,754.9h-14.4v-29.5
		c0-1.8-0.1-3.6-0.5-5.4c-0.3-1.3-0.9-2.4-1.8-3.3c-1-0.9-2.3-1.5-3.6-1.7c-1.9-0.4-3.9-0.5-5.8-0.5h-15.8c-1.9,0-3.8,0.1-5.7,0.5
		c-1.3,0.2-2.6,0.8-3.6,1.7c-1,0.9-1.6,2.1-1.9,3.3c-0.4,1.8-0.6,3.6-0.5,5.4v29.5h-14.5v-29.9c-0.1-3.7,0.3-7.3,1.2-10.9
		c0.6-2.8,2.1-5.3,4.1-7.2c2.2-1.9,4.9-3.3,7.8-3.9c4-0.9,8.1-1.3,12.2-1.2h17.6c4.1-0.1,8.2,0.3,12.3,1.2c2.9,0.7,5.6,2.1,7.8,4.2
		c2.1,2,3.5,4.5,4.2,7.2c0.9,3.6,1.3,7.2,1.2,10.9L-74,754.9z M-29.3,754.9h-14.9v-48.7h14.9L-29.3,754.9z M-1.4,701.1H-72v-12.8
		h70.6L-1.4,701.1z M48.4,755.4c0,3.1,2.5,5.5,5.6,5.5c3.1,0,5.5-2.5,5.5-5.6c0-3.1-2.5-5.5-5.6-5.5
		C50.9,749.8,48.4,752.3,48.4,755.4L48.4,755.4z M68.8,733.7H14.8v2.5c0,1.3,0.1,2.6,0.4,3.9c0.2,0.9,0.7,1.7,1.4,2.3
		c0.8,0.6,1.7,1,2.7,1.1c1.4,0.2,2.8,0.3,4.2,0.3h17.2v10.9H23.5c-6.4,0.6-12.8-1.1-18.1-4.8c-3.9-4.1-5.8-9.7-5.3-15.3v-12
		c-0.1-3.3,0.3-6.5,1.1-9.7c0.6-2.5,2-4.7,3.9-6.4c2.1-1.8,4.6-3,7.2-3.6c3.8-0.8,7.7-1.2,11.6-1.1h25.5c3.2-0.1,6.4,0.3,9.4,1.1
		c2.2,0.6,4.2,1.6,5.9,3c1.4,1.2,2.5,2.8,3,4.6c0.6,1.9,0.9,3.8,0.9,5.8L68.8,733.7z M140,754.8h-38.3c-4.1,0.1-8.2-0.3-12.2-1.2
		c-2.9-0.6-5.6-2-7.8-3.9c-2-1.9-3.4-4.3-4.1-7c-0.9-3.5-1.3-7.1-1.2-10.7v-7.2c-0.1-3.7,0.3-7.3,1.2-10.9c0.6-2.8,2.1-5.3,4.1-7.2
		c2.2-1.9,4.9-3.3,7.8-3.9c4-0.9,8.1-1.3,12.2-1.2h38.2v12.5h-37.7c-1.9,0-3.8,0.1-5.6,0.5c-1.3,0.2-2.5,0.8-3.4,1.7
		c-0.9,0.9-1.5,2.1-1.8,3.4c-0.4,1.8-0.5,3.6-0.5,5.4v6.2c0,1.8,0.1,3.5,0.5,5.2c0.3,1.3,0.9,2.4,1.8,3.4c1,0.9,2.1,1.5,3.4,1.8
		c1.8,0.4,3.7,0.6,5.6,0.5H140L140,754.8z M217.4,754.8H203v-29.4c0-1.8-0.2-3.7-0.6-5.5c-0.5-2.7-2.6-4.7-5.3-5
		c-1.8-0.3-3.7-0.5-5.6-0.5h-28.9v40.5h-14.5v-70h14.5V702h29.2c4.1-0.1,8.3,0.3,12.3,1.2c2.9,0.6,5.6,2,7.8,3.9
		c2.1,2,3.5,4.5,4.1,7.2c0.9,3.6,1.3,7.2,1.2,10.9L217.4,754.8z"/>
	<path class="st1" d="M-246.9,713.2h-24.1c-1.5,0-3,0.1-4.6,0.3c-1.1,0.1-2.1,0.5-3,1.1c-0.8,0.7-1.4,1.5-1.6,2.5
		c-0.4,1.5-0.6,3-0.5,4.5v2.8h39.8v-6.9c0.2-1.4-0.3-2.7-1.3-3.6C-243.8,713.3-245.4,713-246.9,713.2z"/>
</g>
</svg>
