<?xml version="1.0" encoding="utf-8"?>
<!-- Generator: Adobe Illustrator 24.2.1, SVG Export Plug-In . SVG Version: 6.00 Build 0)  -->
<svg version="1.1" id="Layer_1" xmlns="http://www.w3.org/2000/svg" xmlns:xlink="http://www.w3.org/1999/xlink" x="0px" y="0px"
	 viewBox="0 0 700 700" style="enable-background:new 0 0 700 700;" xml:space="preserve">
<style type="text/css">
	.st0{fill:#FFFFFF;}
	.st1{fill:#7FB414;}
</style>
<rect x="1.2" class="st0" width="700" height="700"/>
<g id="Logo" transform="translate(3976 -310)">
	<g id="Layer_1_1_" transform="translate(16 14)">
		<path id="Path_110" d="M-3842.4,507.9v34.9l-69.6,37.4l69.5,37.4v34.8l-106.3-57.2v-30.1L-3842.4,507.9z"/>
		<path id="Path_111" d="M-3335.2,565.1v30.1l-106.4,57.2v-34.8l69.6-37.4l-69.6-37.4v-34.9L-3335.2,565.1z"/>
		<path id="Path_112" d="M-3792.9,516.3v63.8l61.7-63.9h36.1l-61.6,63.9l61.7,63.9h-36.2l-43.6-45.2l-18,18.7V644h-24.5V516.3
			H-3792.9z"/>
		<rect id="Rectangle_11" x="-3561.4" y="552.9" class="st1" width="30.9" height="91.3"/>
		<path id="Path_113" class="st1" d="M-3607.8,516.3l-30.5,32h154.1l31-32.1L-3607.8,516.3z"/>
		<path id="Path_114" class="st1" d="M-3690.6,642l86.2-89.2h-38.2l-67.1,69.4L-3690.6,642z"/>
		<path id="Path_115" d="M-3520.5,729.6h-23.8c-1.5,0-3,0.1-4.6,0.3c-1.1,0.1-2.1,0.5-2.9,1.1c-0.8,0.7-1.4,1.6-1.6,2.6
			c-0.4,1.5-0.5,3-0.5,4.6v2.9h39.2v-7c0.2-1.4-0.3-2.8-1.3-3.7C-3517.3,729.7-3518.9,729.4-3520.5,729.6z"/>
		<path id="Path_116" d="M-3736.1,729.6h-23.8c-1.5,0-3,0.1-4.6,0.3c-1.1,0.1-2.1,0.5-2.9,1.1c-0.8,0.7-1.4,1.6-1.6,2.6
			c-0.4,1.5-0.5,3-0.5,4.6v2.9h39.2v-7c0.2-1.4-0.3-2.8-1.3-3.7C-3733,729.7-3734.6,729.4-3736.1,729.6z"/>
		<path id="Path_117" d="M-3948.2,689v95.1h612.3V689H-3948.2z M-3915.7,771.9h-14.5v-67.7h14.6v30.2l29.2-30.2h21.9l-51.2,52.9
			L-3915.7,771.9z M-3879.4,771.9l-25.2-26.2l11.2-11.6l35.9,37.8H-3879.4z M-3811.3,771.9c-3.1,0.1-5.8-2.3-5.9-5.5
			c-0.1-3.1,2.3-5.8,5.5-5.9c3.1-0.1,5.8,2.3,5.9,5.5c0,0.1,0,0.1,0,0.2C-3805.8,769.3-3808.3,771.8-3811.3,771.9z M-3791.2,750.4
			h-53.4v2.5c0,1.3,0.1,2.7,0.4,4c0.2,0.9,0.7,1.7,1.3,2.3c0.8,0.6,1.7,1,2.7,1.1c1.4,0.2,2.8,0.3,4.2,0.3h16.9v11h-16.9
			c-6.3,0.6-12.7-1.1-17.8-4.9c-3.9-4.2-5.8-9.9-5.3-15.6V739c-0.1-3.3,0.3-6.6,1.1-9.9c0.6-2.5,2-4.7,3.8-6.5
			c2.1-1.8,4.5-3.1,7.2-3.7c3.7-0.8,7.6-1.2,11.4-1.1h25.2c3.1-0.1,6.2,0.3,9.2,1.1c2.2,0.6,4.1,1.6,5.8,3.1c1.5,1.3,2.6,3,3.2,4.9
			c0.6,1.9,0.9,3.9,0.9,5.9L-3791.2,750.4z M-3736.1,772.3c-3.1,0.1-5.8-2.3-5.9-5.5s2.3-5.8,5.5-5.9c3.1-0.1,5.8,2.3,5.9,5.5
			c0,0.1,0,0.1,0,0.2C-3730.6,769.7-3733,772.2-3736.1,772.3z M-3716,750.5h-53.4v2.5c0,1.3,0.1,2.7,0.4,4c0.2,0.9,0.7,1.7,1.4,2.3
			c0.8,0.6,1.7,1,2.7,1.1c1.4,0.2,2.8,0.3,4.2,0.3h16.9v11h-16.9c-6.3,0.6-12.7-1.1-17.8-4.9c-3.9-4.2-5.8-9.9-5.2-15.6V739
			c-0.1-3.3,0.3-6.6,1-9.9c0.6-2.5,2-4.7,3.8-6.5c2.1-1.8,4.5-3,7.2-3.7c3.9-0.8,7.8-1.1,11.7-0.9h24.9c3.1-0.1,6.2,0.3,9.3,1.1
			c2.1,0.6,4.1,1.6,5.8,3.1c1.4,1.2,2.4,2.8,3,4.6c0.6,1.9,0.9,3.9,0.9,5.9L-3716,750.5z M-3641,771.9h-14.3v-30
			c0-1.8-0.1-3.7-0.5-5.5c-0.3-1.3-0.9-2.4-1.8-3.4c-1-0.9-2.2-1.5-3.6-1.7c-1.9-0.4-3.8-0.5-5.7-0.5h-15.6c-1.9,0-3.8,0.1-5.6,0.5
			c-1.3,0.2-2.6,0.8-3.6,1.7c-1,0.9-1.6,2.1-1.9,3.4c-0.4,1.8-0.6,3.6-0.5,5.5v30h-14.2v-30.5c-0.1-3.7,0.3-7.4,1.2-11
			c0.6-2.8,2-5.4,4.1-7.4c2.2-2,4.8-3.3,7.7-4c3.9-0.9,8-1.3,12-1.2h17.4c4.1-0.1,8.1,0.3,12.1,1.2c2.9,0.7,5.5,2.2,7.7,4.3
			c2,2,3.4,4.6,4.1,7.4c0.9,3.6,1.3,7.3,1.2,11L-3641,771.9z M-3596.9,771.9h-14.7v-49.5h14.7L-3596.9,771.9z M-3569.5,717.3h-69.5
			v-13h69.5V717.3z M-3520.4,772.5c0,3.1,2.6,5.6,5.7,5.6c3.1,0,5.6-2.6,5.6-5.7c0-3.1-2.6-5.6-5.7-5.6
			C-3517.9,766.8-3520.4,769.3-3520.4,772.5L-3520.4,772.5z M-3500.3,750.4h-53.3v2.5c0,1.3,0.1,2.7,0.4,4c0.2,0.9,0.7,1.7,1.4,2.3
			c0.8,0.6,1.7,1,2.7,1.1c1.4,0.2,2.8,0.3,4.2,0.3h16.9v11h-16.9c-6.3,0.6-12.7-1.1-17.8-4.9c-3.9-4.2-5.8-9.9-5.2-15.6v-12.2
			c-0.1-3.3,0.3-6.6,1-9.9c0.6-2.5,2-4.7,3.8-6.5c2.1-1.8,4.5-3,7.2-3.7c3.8-0.8,7.6-1.2,11.4-1.1h25.1c3.1-0.1,6.3,0.3,9.3,1.1
			c2.1,0.6,4.1,1.6,5.8,3.1c1.4,1.2,2.4,2.8,3,4.6c0.6,1.9,0.9,3.9,0.9,5.9L-3500.3,750.4z M-3430.2,771.9h-37.7
			c-4,0.1-8.1-0.3-12-1.2c-2.9-0.6-5.5-2-7.7-4c-2-2-3.4-4.4-4.1-7.2c-0.9-3.6-1.3-7.2-1.2-10.9v-7.4c-0.1-3.7,0.3-7.4,1.2-11
			c0.6-2.8,2-5.4,4.1-7.4c2.2-2,4.8-3.3,7.7-4c3.9-0.9,8-1.3,12-1.2h37.6v12.7h-37.1c-1.9,0-3.7,0.1-5.5,0.5
			c-1.3,0.2-2.4,0.8-3.4,1.7c-0.9,1-1.5,2.1-1.7,3.4c-0.4,1.8-0.5,3.6-0.5,5.5v6.3c0,1.8,0.1,3.6,0.5,5.3c0.4,2.6,2.5,4.7,5.1,5.2
			c1.8,0.4,3.7,0.6,5.5,0.6h37.2L-3430.2,771.9z M-3353.9,771.9h-14.3v-30c0-1.9-0.2-3.7-0.6-5.6c-0.4-2.7-2.5-4.7-5.2-5.1
			c-1.8-0.3-3.6-0.5-5.5-0.5h-28.4v41.1h-14.3v-71.1h14.3v17.4h28.8c4.1-0.1,8.2,0.3,12.1,1.2c2.9,0.6,5.5,2,7.7,4
			c2,2,3.5,4.6,4.1,7.4c0.9,3.6,1.3,7.3,1.2,11L-3353.9,771.9z"/>
		<path id="Path_118" d="M-3811.4,729.6h-23.7c-1.5,0-3,0.1-4.5,0.3c-1.1,0.1-2.1,0.5-2.9,1.1c-0.8,0.7-1.4,1.6-1.6,2.6
			c-0.4,1.5-0.5,3-0.5,4.6v2.9h39.2v-7c0.2-1.4-0.3-2.8-1.3-3.7C-3808.2,729.6-3809.8,729.4-3811.4,729.6z"/>
	</g>
</g>
</svg>
