<?xml version="1.0" encoding="utf-8"?>
<!-- Generator: Adobe Illustrator 24.2.1, SVG Export Plug-In . SVG Version: 6.00 Build 0)  -->
<svg version="1.1" id="Layer_1" xmlns="http://www.w3.org/2000/svg" xmlns:xlink="http://www.w3.org/1999/xlink" x="0px" y="0px"
	 viewBox="0 0 200 200" style="enable-background:new 0 0 200 200;" xml:space="preserve">
<style type="text/css">
	.st0{clip-path:url(#SVGID_3_);fill:#FFFFFF;}
	.st1{clip-path:url(#SVGID_5_);fill:#25AD60;}
	.st2{clip-path:url(#SVGID_7_);fill:#5FB87B;}
	.st3{clip-path:url(#SVGID_9_);fill:#25AD60;}
	.st4{clip-path:url(#SVGID_11_);fill:#D1E0E3;}
	.st5{clip-path:url(#SVGID_13_);fill:#BDC8C9;}
	.st6{clip-path:url(#SVGID_15_);fill:#D1E0E3;}
	.st7{clip-path:url(#SVGID_17_);fill:#BDC8C9;}
	.st8{clip-path:url(#SVGID_19_);fill:#D1E0E3;}
	.st9{clip-path:url(#SVGID_21_);fill:#BDC8C9;}
	.st10{clip-path:url(#SVGID_23_);fill:#25AD60;}
	.st11{clip-path:url(#SVGID_25_);fill:#5FB87B;}
	.st12{clip-path:url(#SVGID_27_);fill:#5FB87B;}
	.st13{clip-path:url(#SVGID_29_);fill:#77C089;}
	.st14{clip-path:url(#SVGID_31_);fill:#25AD60;}
	.st15{clip-path:url(#SVGID_33_);fill:#5FB87B;}
	.st16{clip-path:url(#SVGID_35_);fill:#25AD60;}
	.st17{clip-path:url(#SVGID_37_);fill:#5FB87B;}
	.st18{clip-path:url(#SVGID_39_);fill:#D1E0E3;}
	.st19{clip-path:url(#SVGID_41_);fill:#D1E0E3;}
	.st20{fill:none;stroke:#8C8C8C;stroke-width:0.5;stroke-miterlimit:10;}
	.st21{fill:#303030;}
	.st22{font-family:'ArialMT';}
	.st23{font-size:21px;}
</style>
<g id="Mask">
	<g>
		<g>
			<g>
				<g>
					<defs>
						<path id="SVGID_2_" d="M136.5,145.4h-73C47.8,145.4,35,132.6,35,117V44c0-15.7,12.8-28.5,28.5-28.5h73
							c15.7,0,28.5,12.8,28.5,28.5v73C165,132.6,152.2,145.4,136.5,145.4z"/>
					</defs>
					<clipPath id="SVGID_3_">
						<use xlink:href="#SVGID_2_"  style="overflow:visible;"/>
					</clipPath>
					<rect x="35" y="15.4" class="st0" width="130" height="130"/>
				</g>
			</g>
			<g>
				<g>
					<defs>
						<path id="SVGID_4_" d="M136.5,145.4h-73C47.8,145.4,35,132.6,35,117V44c0-15.7,12.8-28.5,28.5-28.5h73
							c15.7,0,28.5,12.8,28.5,28.5v73C165,132.6,152.2,145.4,136.5,145.4z"/>
					</defs>
					<clipPath id="SVGID_5_">
						<use xlink:href="#SVGID_4_"  style="overflow:visible;"/>
					</clipPath>
					<path class="st1" d="M115.5,107.8v-8l-1.6-1.6c0-18.6-23.6-22.5-23.6-27.8v44.3h28v-5.5L115.5,107.8z"/>
				</g>
			</g>
			<g>
				<g>
					<defs>
						<path id="SVGID_6_" d="M136.5,145.4h-73C47.8,145.4,35,132.6,35,117V44c0-15.7,12.8-28.5,28.5-28.5h73
							c15.7,0,28.5,12.8,28.5,28.5v73C165,132.6,152.2,145.4,136.5,145.4z"/>
					</defs>
					<clipPath id="SVGID_7_">
						<use xlink:href="#SVGID_6_"  style="overflow:visible;"/>
					</clipPath>
					<path class="st2" d="M66.8,98.3l-1.6,1.6v8l-2.8,1.4v5.5h28V70.4C90.3,75.8,66.8,79.6,66.8,98.3z"/>
				</g>
			</g>
			<g>
				<g>
					<defs>
						<path id="SVGID_8_" d="M136.5,145.4h-73C47.8,145.4,35,132.6,35,117V44c0-15.7,12.8-28.5,28.5-28.5h73
							c15.7,0,28.5,12.8,28.5,28.5v73C165,132.6,152.2,145.4,136.5,145.4z"/>
					</defs>
					<clipPath id="SVGID_9_">
						<use xlink:href="#SVGID_8_"  style="overflow:visible;"/>
					</clipPath>
					<path class="st3" d="M129.1,31.2c0.6,0.3,0.9,0.9,0.9,1.6c0,1.1-0.8,1.9-1.9,1.9c-1.1,0-1.9-0.8-1.9-1.9c0-0.7,0.4-1.3,0.9-1.6
						c-0.7,0.4-1.2,1.1-1.2,2c0,1.2,1,2.2,2.2,2.2s2.2-1,2.2-2.2C130.4,32.3,129.9,31.5,129.1,31.2z"/>
				</g>
			</g>
			<g>
				<g>
					<defs>
						<path id="SVGID_10_" d="M136.5,145.4h-73C47.8,145.4,35,132.6,35,117V44c0-15.7,12.8-28.5,28.5-28.5h73
							c15.7,0,28.5,12.8,28.5,28.5v73C165,132.6,152.2,145.4,136.5,145.4z"/>
					</defs>
					<clipPath id="SVGID_11_">
						<use xlink:href="#SVGID_10_"  style="overflow:visible;"/>
					</clipPath>
					<rect x="120.9" y="83.5" class="st4" width="7.3" height="31.7"/>
				</g>
			</g>
			<g>
				<g>
					<defs>
						<path id="SVGID_12_" d="M136.5,145.4h-73C47.8,145.4,35,132.6,35,117V44c0-15.7,12.8-28.5,28.5-28.5h73
							c15.7,0,28.5,12.8,28.5,28.5v73C165,132.6,152.2,145.4,136.5,145.4z"/>
					</defs>
					<clipPath id="SVGID_13_">
						<use xlink:href="#SVGID_12_"  style="overflow:visible;"/>
					</clipPath>
					<rect x="128.1" y="83.5" class="st5" width="7.3" height="31.7"/>
				</g>
			</g>
			<g>
				<g>
					<defs>
						<path id="SVGID_14_" d="M136.5,145.4h-73C47.8,145.4,35,132.6,35,117V44c0-15.7,12.8-28.5,28.5-28.5h73
							c15.7,0,28.5,12.8,28.5,28.5v73C165,132.6,152.2,145.4,136.5,145.4z"/>
					</defs>
					<clipPath id="SVGID_15_">
						<use xlink:href="#SVGID_14_"  style="overflow:visible;"/>
					</clipPath>
					<polygon class="st6" points="128.1,56.2 122.2,56.2 122.2,56.2 122.2,73.9 128.1,73.9 					"/>
				</g>
			</g>
			<g>
				<g>
					<defs>
						<path id="SVGID_16_" d="M136.5,145.4h-73C47.8,145.4,35,132.6,35,117V44c0-15.7,12.8-28.5,28.5-28.5h73
							c15.7,0,28.5,12.8,28.5,28.5v73C165,132.6,152.2,145.4,136.5,145.4z"/>
					</defs>
					<clipPath id="SVGID_17_">
						<use xlink:href="#SVGID_16_"  style="overflow:visible;"/>
					</clipPath>
					<polygon class="st7" points="128.1,73.9 134.1,73.9 134.1,56.2 134.1,56.2 128.1,56.2 					"/>
				</g>
			</g>
			<g>
				<g>
					<defs>
						<path id="SVGID_18_" d="M136.5,145.4h-73C47.8,145.4,35,132.6,35,117V44c0-15.7,12.8-28.5,28.5-28.5h73
							c15.7,0,28.5,12.8,28.5,28.5v73C165,132.6,152.2,145.4,136.5,145.4z"/>
					</defs>
					<clipPath id="SVGID_19_">
						<use xlink:href="#SVGID_18_"  style="overflow:visible;"/>
					</clipPath>
					<polygon class="st8" points="128.1,41.8 126.2,41.8 124,41.8 124,52.7 128.1,52.7 					"/>
				</g>
			</g>
			<g>
				<g>
					<defs>
						<path id="SVGID_20_" d="M136.5,145.4h-73C47.8,145.4,35,132.6,35,117V44c0-15.7,12.8-28.5,28.5-28.5h73
							c15.7,0,28.5,12.8,28.5,28.5v73C165,132.6,152.2,145.4,136.5,145.4z"/>
					</defs>
					<clipPath id="SVGID_21_">
						<use xlink:href="#SVGID_20_"  style="overflow:visible;"/>
					</clipPath>
					<polygon class="st9" points="128.1,52.7 132.3,52.7 132.3,41.8 130,41.8 128.1,41.8 					"/>
				</g>
			</g>
			<g>
				<g>
					<defs>
						<path id="SVGID_22_" d="M136.5,145.4h-73C47.8,145.4,35,132.6,35,117V44c0-15.7,12.8-28.5,28.5-28.5h73
							c15.7,0,28.5,12.8,28.5,28.5v73C165,132.6,152.2,145.4,136.5,145.4z"/>
					</defs>
					<clipPath id="SVGID_23_">
						<use xlink:href="#SVGID_22_"  style="overflow:visible;"/>
					</clipPath>
					<polygon class="st10" points="134.1,73.9 128.1,73.9 128.1,79.2 137.9,79.2 137.9,73.9 					"/>
				</g>
			</g>
			<g>
				<g>
					<defs>
						<path id="SVGID_24_" d="M136.5,145.4h-73C47.8,145.4,35,132.6,35,117V44c0-15.7,12.8-28.5,28.5-28.5h73
							c15.7,0,28.5,12.8,28.5,28.5v73C165,132.6,152.2,145.4,136.5,145.4z"/>
					</defs>
					<clipPath id="SVGID_25_">
						<use xlink:href="#SVGID_24_"  style="overflow:visible;"/>
					</clipPath>
					<polygon class="st11" points="128.1,73.9 122.2,73.9 118.4,73.9 118.4,79.2 128.1,79.2 					"/>
				</g>
			</g>
			<g>
				<g>
					<defs>
						<path id="SVGID_26_" d="M136.5,145.4h-73C47.8,145.4,35,132.6,35,117V44c0-15.7,12.8-28.5,28.5-28.5h73
							c15.7,0,28.5,12.8,28.5,28.5v73C165,132.6,152.2,145.4,136.5,145.4z"/>
					</defs>
					<clipPath id="SVGID_27_">
						<use xlink:href="#SVGID_26_"  style="overflow:visible;"/>
					</clipPath>
					<polygon class="st12" points="128.1,83.5 135.4,83.5 137.9,79.2 128.1,79.2 					"/>
				</g>
			</g>
			<g>
				<g>
					<defs>
						<path id="SVGID_28_" d="M136.5,145.4h-73C47.8,145.4,35,132.6,35,117V44c0-15.7,12.8-28.5,28.5-28.5h73
							c15.7,0,28.5,12.8,28.5,28.5v73C165,132.6,152.2,145.4,136.5,145.4z"/>
					</defs>
					<clipPath id="SVGID_29_">
						<use xlink:href="#SVGID_28_"  style="overflow:visible;"/>
					</clipPath>
					<polygon class="st13" points="128.1,79.2 118.4,79.2 120.9,83.5 128.1,83.5 					"/>
				</g>
			</g>
			<g>
				<g>
					<defs>
						<path id="SVGID_30_" d="M136.5,145.4h-73C47.8,145.4,35,132.6,35,117V44c0-15.7,12.8-28.5,28.5-28.5h73
							c15.7,0,28.5,12.8,28.5,28.5v73C165,132.6,152.2,145.4,136.5,145.4z"/>
					</defs>
					<clipPath id="SVGID_31_">
						<use xlink:href="#SVGID_30_"  style="overflow:visible;"/>
					</clipPath>
					<polygon class="st14" points="128.1,56.2 134.1,56.2 136.1,52.7 132.3,52.7 128.1,52.7 					"/>
				</g>
			</g>
			<g>
				<g>
					<defs>
						<path id="SVGID_32_" d="M136.5,145.4h-73C47.8,145.4,35,132.6,35,117V44c0-15.7,12.8-28.5,28.5-28.5h73
							c15.7,0,28.5,12.8,28.5,28.5v73C165,132.6,152.2,145.4,136.5,145.4z"/>
					</defs>
					<clipPath id="SVGID_33_">
						<use xlink:href="#SVGID_32_"  style="overflow:visible;"/>
					</clipPath>
					<polygon class="st15" points="128.1,52.7 124,52.7 120.2,52.7 122.2,56.2 128.1,56.2 					"/>
				</g>
			</g>
			<g>
				<g>
					<defs>
						<path id="SVGID_34_" d="M136.5,145.4h-73C47.8,145.4,35,132.6,35,117V44c0-15.7,12.8-28.5,28.5-28.5h73
							c15.7,0,28.5,12.8,28.5,28.5v73C165,132.6,152.2,145.4,136.5,145.4z"/>
					</defs>
					<clipPath id="SVGID_35_">
						<use xlink:href="#SVGID_34_"  style="overflow:visible;"/>
					</clipPath>
					<polygon class="st16" points="130,41.8 130,38.6 129.5,36.6 128.1,36.6 128.1,41.8 					"/>
				</g>
			</g>
			<g>
				<g>
					<defs>
						<path id="SVGID_36_" d="M136.5,145.4h-73C47.8,145.4,35,132.6,35,117V44c0-15.7,12.8-28.5,28.5-28.5h73
							c15.7,0,28.5,12.8,28.5,28.5v73C165,132.6,152.2,145.4,136.5,145.4z"/>
					</defs>
					<clipPath id="SVGID_37_">
						<use xlink:href="#SVGID_36_"  style="overflow:visible;"/>
					</clipPath>
					<polygon class="st17" points="128.1,36.6 126.7,36.6 126.2,38.6 126.2,41.8 128.1,41.8 					"/>
				</g>
			</g>
			<g>
				<g>
					<defs>
						<path id="SVGID_38_" d="M136.5,145.4h-73C47.8,145.4,35,132.6,35,117V44c0-15.7,12.8-28.5,28.5-28.5h73
							c15.7,0,28.5,12.8,28.5,28.5v73C165,132.6,152.2,145.4,136.5,145.4z"/>
					</defs>
					<clipPath id="SVGID_39_">
						<use xlink:href="#SVGID_38_"  style="overflow:visible;"/>
					</clipPath>
					<rect x="35" y="114.9" class="st18" width="130" height="1.6"/>
				</g>
			</g>
			<g>
				<g>
					<defs>
						<path id="SVGID_40_" d="M136.5,145.4h-73C47.8,145.4,35,132.6,35,117V44c0-15.7,12.8-28.5,28.5-28.5h73
							c15.7,0,28.5,12.8,28.5,28.5v73C165,132.6,152.2,145.4,136.5,145.4z"/>
					</defs>
					<clipPath id="SVGID_41_">
						<use xlink:href="#SVGID_40_"  style="overflow:visible;"/>
					</clipPath>
					<rect x="35" y="116.5" class="st19" width="130" height="29"/>
				</g>
			</g>
			<g>
				<path id="SVGID_1_" class="st20" d="M136.5,145.4h-73C47.8,145.4,35,132.6,35,117V44c0-15.7,12.8-28.5,28.5-28.5h73
					c15.7,0,28.5,12.8,28.5,28.5v73C165,132.6,152.2,145.4,136.5,145.4z"/>
			</g>
		</g>
	</g>
</g>
<text transform="matrix(1 0 0 1 46.9102 173.339)" class="st21 st22 st23">My Prayers</text>
</svg>
