<?xml version="1.0" encoding="utf-8"?>
<!-- Generator: Adobe Illustrator 24.2.1, SVG Export Plug-In . SVG Version: 6.00 Build 0)  -->
<svg version="1.1" xmlns="http://www.w3.org/2000/svg" xmlns:xlink="http://www.w3.org/1999/xlink" x="0px" y="0px"
	 viewBox="0 0 200 200" style="enable-background:new 0 0 200 200;" xml:space="preserve">
<style type="text/css">
	.st0{display:none;}
	.st1{fill:#1791FF;}
	.st2{display:inline;}
	.st3{opacity:0.5;}
	.st4{fill:none;stroke:#FFFFFF;stroke-linecap:square;stroke-miterlimit:10;}
	.st5{fill:none;stroke:#FFFFFF;stroke-miterlimit:10;}
	.st6{display:inline;opacity:0.5;fill:none;stroke:#FFFFFF;stroke-linecap:square;stroke-miterlimit:10;}
	.st7{clip-path:url(#SVGID_2_);fill:#FFFFFF;}
	.st8{clip-path:url(#SVGID_2_);fill:#25AD60;}
	.st9{clip-path:url(#SVGID_2_);fill:#5FB87B;}
	.st10{clip-path:url(#SVGID_2_);fill:#D1E0E3;}
	.st11{clip-path:url(#SVGID_2_);fill:#BDC8C9;}
	.st12{clip-path:url(#SVGID_2_);fill:#77C089;}
	.st13{fill:#303030;}
	.st14{font-family:'MyriadPro-Regular';}
	.st15{font-size:21px;}
</style>
<g id="Artwork_-_Edit_Me" class="st0">
	<rect x="-1546" y="-297.5" class="st1" width="1024" height="1024"/>
</g>
<g id="Grid" class="st0">
	<g class="st2">
		<g class="st3">
			<g>
				<line class="st4" x1="-522" y1="-297.5" x2="-1546" y2="726.5"/>
				<line class="st4" x1="-1546" y1="-297.5" x2="-522" y2="726.5"/>
				<line class="st4" x1="-588" y1="-297.5" x2="-588" y2="726.5"/>
				<line class="st4" x1="-840" y1="-297.5" x2="-840" y2="726.5"/>
				<line class="st4" x1="-1034" y1="-297.5" x2="-1034" y2="726.5"/>
				<line class="st4" x1="-1228" y1="-297.5" x2="-1228" y2="726.5"/>
				<line class="st4" x1="-1480" y1="-297.5" x2="-1480" y2="726.5"/>
				<line class="st4" x1="-1546" y1="-231.5" x2="-522" y2="-231.5"/>
				<line class="st4" x1="-1546" y1="20.5" x2="-522" y2="20.5"/>
				<line class="st4" x1="-1546" y1="214.5" x2="-522" y2="214.5"/>
				<line class="st4" x1="-1546" y1="408.5" x2="-522" y2="408.5"/>
				<line class="st4" x1="-1546" y1="660.5" x2="-522" y2="660.5"/>
				<circle class="st5" cx="-1034" cy="214.5" r="194"/>
				<circle class="st5" cx="-1034" cy="214.5" r="274"/>
				<circle class="st5" cx="-1034" cy="214.5" r="446"/>
			</g>
		</g>
	</g>
	<path class="st6" d="M-747,726.5h-574c-124.3,0-225-100.7-225-225v-574c0-124.3,100.7-225,225-225h574c124.3,0,225,100.7,225,225
		v574C-522,625.8-622.7,726.5-747,726.5z"/>
</g>
<g id="Guides" class="st0">
</g>
<g id="Mask">
	<g>
		<g>
			<defs>
				<path id="SVGID_1_" d="M136.5,145.4h-73C47.8,145.4,35,132.6,35,117v-73c0-15.7,12.8-28.5,28.5-28.5h73
					c15.7,0,28.5,12.8,28.5,28.5v73C165,132.6,152.2,145.4,136.5,145.4z"/>
			</defs>
			<clipPath id="SVGID_2_">
				<use xlink:href="#SVGID_1_"  style="overflow:visible;"/>
			</clipPath>
			<rect x="35" y="15.4" class="st7" width="130" height="130"/>
			<path class="st8" d="M115.5,107.8v-8l-1.6-1.6c0-18.6-23.6-22.5-23.6-27.8v44.3h28v-5.5L115.5,107.8z"/>
			<path class="st9" d="M66.8,98.3l-1.6,1.6v8l-2.8,1.4v5.5h28V70.4C90.3,75.8,66.8,79.6,66.8,98.3z"/>
			<path class="st8" d="M129.1,31.2c0.6,0.3,0.9,0.9,0.9,1.6c0,1.1-0.8,1.9-1.9,1.9c-1.1,0-1.9-0.8-1.9-1.9c0-0.7,0.4-1.3,0.9-1.6
				c-0.7,0.4-1.2,1.1-1.2,2c0,1.2,1,2.2,2.2,2.2c1.2,0,2.2-1,2.2-2.2C130.4,32.3,129.9,31.5,129.1,31.2z"/>
			<rect x="120.9" y="83.5" class="st10" width="7.3" height="31.7"/>
			<rect x="128.1" y="83.5" class="st11" width="7.3" height="31.7"/>
			<polygon class="st10" points="128.1,56.2 122.2,56.2 122.2,56.2 122.2,73.9 128.1,73.9 			"/>
			<polygon class="st11" points="128.1,73.9 134.1,73.9 134.1,56.2 134.1,56.2 128.1,56.2 			"/>
			<polygon class="st10" points="128.1,41.8 126.2,41.8 124,41.8 124,52.7 128.1,52.7 			"/>
			<polygon class="st11" points="128.1,52.7 132.3,52.7 132.3,41.8 130,41.8 128.1,41.8 			"/>
			<polygon class="st8" points="134.1,73.9 128.1,73.9 128.1,79.2 137.9,79.2 137.9,73.9 			"/>
			<polygon class="st9" points="128.1,73.9 122.2,73.9 118.4,73.9 118.4,79.2 128.1,79.2 			"/>
			<polygon class="st9" points="128.1,83.5 135.4,83.5 137.9,79.2 128.1,79.2 			"/>
			<polygon class="st12" points="128.1,79.2 118.4,79.2 120.9,83.5 128.1,83.5 			"/>
			<polygon class="st8" points="128.1,56.2 134.1,56.2 136.1,52.7 132.3,52.7 128.1,52.7 			"/>
			<polygon class="st9" points="128.1,52.7 124,52.7 120.2,52.7 122.2,56.2 128.1,56.2 			"/>
			<polygon class="st8" points="130,41.8 130,38.6 129.5,36.6 128.1,36.6 128.1,41.8 			"/>
			<polygon class="st9" points="128.1,36.6 126.7,36.6 126.2,38.6 126.2,41.8 128.1,41.8 			"/>
			<rect x="35" y="114.9" class="st10" width="130" height="1.6"/>
			<rect x="35" y="116.5" class="st10" width="130" height="29"/>
			<use xlink:href="#SVGID_1_"  style="overflow:visible;fill:none;stroke:#8C8C8C;stroke-width:0.5;stroke-miterlimit:10;"/>
		</g>
	</g>
	<text transform="matrix(1 0 0 1 52.845 173.339)" class="st13 st14 st15">My Prayers</text>
</g>
</svg>
