<?xml version="1.0" encoding="utf-8"?>
<!-- Generator: Adobe Illustrator 24.2.1, SVG Export Plug-In . SVG Version: 6.00 Build 0)  -->
<svg version="1.1" id="Layer_1" xmlns="http://www.w3.org/2000/svg" xmlns:xlink="http://www.w3.org/1999/xlink" x="0px" y="0px"
	 viewBox="0 0 200 200" style="enable-background:new 0 0 200 200;" xml:space="preserve">
<style type="text/css">
	.st0{clip-path:url(#SVGID_2_);fill:#25AD60;}
	.st1{clip-path:url(#SVGID_4_);fill:#5FB87B;}
	.st2{clip-path:url(#SVGID_6_);fill:#25AD60;}
	.st3{clip-path:url(#SVGID_8_);fill:#D1E0E3;}
	.st4{clip-path:url(#SVGID_10_);fill:#BDC8C9;}
	.st5{clip-path:url(#SVGID_12_);fill:#D1E0E3;}
	.st6{clip-path:url(#SVGID_14_);fill:#BDC8C9;}
	.st7{clip-path:url(#SVGID_16_);fill:#D1E0E3;}
	.st8{clip-path:url(#SVGID_18_);fill:#BDC8C9;}
	.st9{clip-path:url(#SVGID_20_);fill:#25AD60;}
	.st10{clip-path:url(#SVGID_22_);fill:#5FB87B;}
	.st11{clip-path:url(#SVGID_24_);fill:#5FB87B;}
	.st12{clip-path:url(#SVGID_26_);fill:#77C089;}
	.st13{clip-path:url(#SVGID_28_);fill:#25AD60;}
	.st14{clip-path:url(#SVGID_30_);fill:#5FB87B;}
	.st15{clip-path:url(#SVGID_32_);fill:#25AD60;}
	.st16{clip-path:url(#SVGID_34_);fill:#5FB87B;}
	.st17{clip-path:url(#SVGID_36_);fill:#BDC8C9;}
	.st18{clip-path:url(#SVGID_39_);fill:#D1E0E3;}
	.st19{fill:none;stroke:#8C8C8C;stroke-width:0.25;stroke-miterlimit:10.0003;}
	.st20{font-family:'ArialMT';}
	.st21{font-size:21px;}
</style>
<g id="Layer_2_1_">
</g>
<g id="Layer_1_1_">
	<g>
		<g>
			<defs>
				<circle id="SVGID_1_" cx="100" cy="80.9" r="65"/>
			</defs>
			<clipPath id="SVGID_2_">
				<use xlink:href="#SVGID_1_"  style="overflow:visible;"/>
			</clipPath>
			<path class="st0" d="M116.2,113.3v-8.4l-1.7-1.7c0-19.6-24.8-23.6-24.8-29.3v46.7h29.5v-5.8L116.2,113.3z"/>
		</g>
	</g>
	<g>
		<g>
			<defs>
				<circle id="SVGID_3_" cx="100" cy="80.9" r="65"/>
			</defs>
			<clipPath id="SVGID_4_">
				<use xlink:href="#SVGID_3_"  style="overflow:visible;"/>
			</clipPath>
			<path class="st1" d="M64.9,103.2l-1.7,1.7v8.4l-3,1.5v5.8h29.5V73.9C89.7,79.5,64.9,83.6,64.9,103.2z"/>
		</g>
	</g>
	<g>
		<g>
			<defs>
				<circle id="SVGID_5_" cx="100" cy="80.9" r="65"/>
			</defs>
			<clipPath id="SVGID_6_">
				<use xlink:href="#SVGID_5_"  style="overflow:visible;"/>
			</clipPath>
			<path class="st2" d="M130.5,32.5c0.6,0.4,1,1,1,1.7c0,1.1-0.9,2-2,2s-2-0.9-2-2c0-0.7,0.4-1.3,1-1.7c-0.8,0.4-1.3,1.2-1.3,2.1
				c0,1.3,1,2.4,2.4,2.4c1.3,0,2.4-1,2.4-2.4C131.8,33.7,131.3,32.9,130.5,32.5z"/>
		</g>
	</g>
	<g>
		<g>
			<defs>
				<circle id="SVGID_7_" cx="100" cy="80.9" r="65"/>
			</defs>
			<clipPath id="SVGID_8_">
				<use xlink:href="#SVGID_7_"  style="overflow:visible;"/>
			</clipPath>
			<rect x="121.8" y="87.6" class="st3" width="7.7" height="33.4"/>
		</g>
	</g>
	<g>
		<g>
			<defs>
				<circle id="SVGID_9_" cx="100" cy="80.9" r="65"/>
			</defs>
			<clipPath id="SVGID_10_">
				<use xlink:href="#SVGID_9_"  style="overflow:visible;"/>
			</clipPath>
			<rect x="129.5" y="87.6" class="st4" width="7.7" height="33.4"/>
		</g>
	</g>
	<g>
		<g>
			<defs>
				<circle id="SVGID_11_" cx="100" cy="80.9" r="65"/>
			</defs>
			<clipPath id="SVGID_12_">
				<use xlink:href="#SVGID_11_"  style="overflow:visible;"/>
			</clipPath>
			<polygon class="st5" points="129.5,58.9 123.3,58.9 123.2,58.9 123.2,77.5 129.5,77.5 			"/>
		</g>
	</g>
	<g>
		<g>
			<defs>
				<circle id="SVGID_13_" cx="100" cy="80.9" r="65"/>
			</defs>
			<clipPath id="SVGID_14_">
				<use xlink:href="#SVGID_13_"  style="overflow:visible;"/>
			</clipPath>
			<polygon class="st6" points="129.5,77.5 135.8,77.5 135.8,58.9 135.7,58.9 129.5,58.9 			"/>
		</g>
	</g>
	<g>
		<g>
			<defs>
				<circle id="SVGID_15_" cx="100" cy="80.9" r="65"/>
			</defs>
			<clipPath id="SVGID_16_">
				<use xlink:href="#SVGID_15_"  style="overflow:visible;"/>
			</clipPath>
			<polygon class="st7" points="129.5,43.7 127.5,43.7 125.1,43.7 125.1,55.2 129.5,55.2 			"/>
		</g>
	</g>
	<g>
		<g>
			<defs>
				<circle id="SVGID_17_" cx="100" cy="80.9" r="65"/>
			</defs>
			<clipPath id="SVGID_18_">
				<use xlink:href="#SVGID_17_"  style="overflow:visible;"/>
			</clipPath>
			<polygon class="st8" points="129.5,55.2 133.8,55.2 133.8,43.7 131.5,43.7 129.5,43.7 			"/>
		</g>
	</g>
	<g>
		<g>
			<defs>
				<circle id="SVGID_19_" cx="100" cy="80.9" r="65"/>
			</defs>
			<clipPath id="SVGID_20_">
				<use xlink:href="#SVGID_19_"  style="overflow:visible;"/>
			</clipPath>
			<polygon class="st9" points="135.8,77.5 129.5,77.5 129.5,83.1 139.8,83.1 139.8,77.5 			"/>
		</g>
	</g>
	<g>
		<g>
			<defs>
				<circle id="SVGID_21_" cx="100" cy="80.9" r="65"/>
			</defs>
			<clipPath id="SVGID_22_">
				<use xlink:href="#SVGID_21_"  style="overflow:visible;"/>
			</clipPath>
			<polygon class="st10" points="129.5,77.5 123.2,77.5 119.2,77.5 119.2,83.1 129.5,83.1 			"/>
		</g>
	</g>
	<g>
		<g>
			<defs>
				<circle id="SVGID_23_" cx="100" cy="80.9" r="65"/>
			</defs>
			<clipPath id="SVGID_24_">
				<use xlink:href="#SVGID_23_"  style="overflow:visible;"/>
			</clipPath>
			<polygon class="st11" points="129.5,87.6 137.2,87.6 139.8,83.1 129.5,83.1 			"/>
		</g>
	</g>
	<g>
		<g>
			<defs>
				<circle id="SVGID_25_" cx="100" cy="80.9" r="65"/>
			</defs>
			<clipPath id="SVGID_26_">
				<use xlink:href="#SVGID_25_"  style="overflow:visible;"/>
			</clipPath>
			<polygon class="st12" points="129.5,83.1 119.2,83.1 121.8,87.6 129.5,87.6 			"/>
		</g>
	</g>
	<g>
		<g>
			<defs>
				<circle id="SVGID_27_" cx="100" cy="80.9" r="65"/>
			</defs>
			<clipPath id="SVGID_28_">
				<use xlink:href="#SVGID_27_"  style="overflow:visible;"/>
			</clipPath>
			<polygon class="st13" points="129.5,58.9 135.7,58.9 137.9,55.2 133.8,55.2 129.5,55.2 			"/>
		</g>
	</g>
	<g>
		<g>
			<defs>
				<circle id="SVGID_29_" cx="100" cy="80.9" r="65"/>
			</defs>
			<clipPath id="SVGID_30_">
				<use xlink:href="#SVGID_29_"  style="overflow:visible;"/>
			</clipPath>
			<polygon class="st14" points="129.5,55.2 125.1,55.2 121.1,55.2 123.3,58.9 129.5,58.9 			"/>
		</g>
	</g>
	<g>
		<g>
			<defs>
				<circle id="SVGID_31_" cx="100" cy="80.9" r="65"/>
			</defs>
			<clipPath id="SVGID_32_">
				<use xlink:href="#SVGID_31_"  style="overflow:visible;"/>
			</clipPath>
			<polygon class="st15" points="131.5,43.7 131.5,40.3 131,38.2 129.5,38.2 129.5,43.7 			"/>
		</g>
	</g>
	<g>
		<g>
			<defs>
				<circle id="SVGID_33_" cx="100" cy="80.9" r="65"/>
			</defs>
			<clipPath id="SVGID_34_">
				<use xlink:href="#SVGID_33_"  style="overflow:visible;"/>
			</clipPath>
			<polygon class="st16" points="129.5,38.2 128,38.2 127.5,40.3 127.5,43.7 129.5,43.7 			"/>
		</g>
	</g>
	<g>
		<g>
			<defs>
				<circle id="SVGID_35_" cx="100" cy="80.9" r="65"/>
			</defs>
			<clipPath id="SVGID_36_">
				<use xlink:href="#SVGID_35_"  style="overflow:visible;"/>
			</clipPath>
			<rect x="44" y="120.5" class="st17" width="108" height="1.8"/>
		</g>
	</g>
	<g>
		<g>
			<g>
				<defs>
					<circle id="SVGID_38_" cx="100" cy="80.9" r="65"/>
				</defs>
				<clipPath id="SVGID_39_">
					<use xlink:href="#SVGID_38_"  style="overflow:visible;"/>
				</clipPath>
				<rect x="44" y="122.4" class="st18" width="108" height="26.6"/>
			</g>
			<g>
				<ellipse id="SVGID_37_" class="st19" cx="100" cy="80.9" rx="65" ry="65"/>
			</g>
		</g>
	</g>
</g>
<text transform="matrix(1 0 0 1 46.9102 173.1343)" class="st20 st21">My Prayers</text>
</svg>
