<?xml version="1.0" encoding="utf-8"?>
<!-- Generator: Adobe Illustrator 24.2.1, SVG Export Plug-In . SVG Version: 6.00 Build 0)  -->
<svg version="1.1" id="Foreground_Layer" xmlns="http://www.w3.org/2000/svg" xmlns:xlink="http://www.w3.org/1999/xlink" x="0px"
	 y="0px" viewBox="0 0 200 200" style="enable-background:new 0 0 200 200;" xml:space="preserve">
<style type="text/css">
	.st0{fill:#4656A2;}
	.st1{fill:#040504;}
	.st2{fill:#FFFFFF;}
	.st3{fill:#303030;}
	.st4{font-family:'ArialMT';}
	.st5{font-size:21px;}
</style>
<g>
	<circle class="st0" cx="100" cy="81.1" r="65"/>
	<g>
		<g id="right_phone">
			<path class="st1" d="M106.8,116.4l25.5-7.2c1.5-0.5,2.7-1.7,3.1-3.3l7.2-37.8c0.4-2.1-0.6-3.7-2.3-3.6l-32,2.9
				c-2.4,0.4-4.2,2.4-4.2,4.8l-0.5,42.2C103.6,116,105,116.8,106.8,116.4z"/>
			<path class="st2" d="M109.6,106.3l22.2-5.5c1.4-0.4,2.5-1.6,2.9-3.1l4.6-25.7c0.3-1.8-0.6-3.2-2.2-3.1l-26,2.9
				c-2,0.3-3.5,2.1-3.6,4.1l-0.8,28.3C106.7,105.9,108,106.8,109.6,106.3z"/>
			<path class="st2" d="M109.8,111.5l4.5-1.2c0.4-0.1,0.7-0.5,0.8-0.9l0,0c0-0.4-0.3-0.6-0.7-0.5l-4.5,1.2c-0.4,0.1-0.8,0.5-0.8,0.9
				l0,0C109,111.4,109.4,111.6,109.8,111.5z"/>
			<path class="st2" d="M126.5,107.1l3.9-1c0.4-0.1,0.7-0.4,0.8-0.8l0,0c0-0.4-0.2-0.6-0.6-0.5l-3.9,1c-0.4,0.1-0.7,0.5-0.8,0.9l0,0
				C125.8,107,126.1,107.2,126.5,107.1z"/>
			<path class="st2" d="M118.1,108.6c-0.1,1.2,0.8,1.8,2,1.5c1.3-0.4,2.2-1.4,2.5-2.7c0.1-1.2-0.7-1.9-2-1.5
				C119.3,106.2,118.4,107.3,118.1,108.6z"/>
		</g>
		<g id="left2phone">
			<path class="st1" d="M93.1,116.4l-25.5-7.2c-1.5-0.5-2.7-1.7-3.1-3.3l-7.2-37.8C57,66,58,64.3,59.7,64.5l31.8,2.9
				c2.4,0.4,4.2,2.4,4.2,4.9l0.5,42.3C96.3,116,94.9,116.8,93.1,116.4z"/>
			<path class="st2" d="M90.3,106.3L68,100.9c-1.4-0.4-2.5-1.6-2.9-3.1l-4.6-25.7c-0.3-1.8,0.6-3.2,2.1-3.1L88.7,72
				c2,0.3,3.6,2.1,3.6,4.1l0.8,28.3C93.2,105.9,91.8,106.8,90.3,106.3z"/>
			<path class="st2" d="M90.1,111.5l-4.5-1.2c-0.4-0.1-0.7-0.5-0.8-0.9l0,0c0-0.4,0.3-0.6,0.7-0.5l4.5,1.2c0.4,0.1,0.8,0.5,0.8,0.9
				l0,0C90.9,111.4,90.5,111.6,90.1,111.5z"/>
			<path class="st2" d="M73.5,107.1l-3.9-1c-0.4-0.1-0.7-0.4-0.8-0.8l0,0c-0.1-0.2,0.1-0.5,0.3-0.5c0.1,0,0.2,0,0.3,0l3.9,1
				c0.4,0.1,0.7,0.5,0.8,0.9l0,0C74.1,107,73.8,107.2,73.5,107.1z"/>
			<path class="st2" d="M81.8,108.6c0.1,1.2-0.8,1.8-2,1.5c-1.2-0.4-2.2-1.4-2.4-2.7c-0.1-1.2,0.7-1.9,2-1.5
				C80.5,106.3,81.5,107.3,81.8,108.6z"/>
		</g>
		<path id="medium" class="st1" d="M97.6,116.5V70.4l1-2.6h2.1c0.2,0,0.4,0.2,0.4,0.4l0.8,2.2v46.1l-2.2-2.3L97.6,116.5z"/>
		<g id="left_papers">
			<path class="st2" d="M62.2,59l32.7,7.5c0.5,0.1,0.4,0.2,0.2,0.6l-32.8-3.3c-0.4,0-0.7-0.4-0.7-0.8c0,0,0,0,0,0l-0.7-3
				C61,59.3,61.6,58.9,62.2,59C62.2,59,62.2,59,62.2,59z"/>
			<path class="st2" d="M63.1,55.3l30.1,10.1c0.5,0.2,0.4,0.2,0.2,0.4l-30.5-7.4c-0.4-0.1-0.6-0.4-0.6-0.6l-0.4-2
				C62,55.3,62.5,55.1,63.1,55.3z"/>
			<path class="st2" d="M65.3,52.2l27.9,12.3c0.5,0.2,0.4,0.2,0.1,0.4l-28.5-9.8c-0.4-0.1-0.6-0.4-0.5-0.7l-0.2-2
				C64.3,52.1,64.8,52,65.3,52.2z"/>
			<path class="st2" d="M67.5,49l27,15c0.5,0.2,0.3,0.2,0,0.4L66.8,51.9c-0.4-0.2-0.6-0.5-0.4-0.7v-2.1C66.5,48.8,67,48.7,67.5,49z"
				/>
			<path class="st2" d="M70,45.8l25.5,17.6c0.4,0.3,0.3,0.3,0,0.4L68.9,48.7c-0.3-0.2-0.5-0.5-0.4-0.8l0.1-2
				C68.9,45.6,69.5,45.6,70,45.8z"/>
		</g>
		<g id="right_papers">
			<path class="st2" d="M136,59.4l-32.6,7.5c-0.5,0.1-0.4,0.2-0.2,0.6l32.7-3.3c0.4,0,0.7-0.4,0.7-0.8c0,0,0,0,0,0l0.6-3
				C137.1,59.8,136.6,59.3,136,59.4z"/>
			<path class="st2" d="M135.2,55.7L105,65.8c-0.5,0.2-0.4,0.2-0.2,0.4l30.5-7.4c0.4-0.1,0.6-0.4,0.6-0.6l0.4-2
				C136.2,55.7,135.7,55.5,135.2,55.7z"/>
			<path class="st2" d="M132.9,52.6L105,64.9c-0.5,0.2-0.4,0.2-0.1,0.4l28.5-9.8c0.4-0.1,0.6-0.4,0.5-0.7l0.2-2
				C133.9,52.5,133.4,52.4,132.9,52.6z"/>
			<path class="st2" d="M130.7,49.4l-27,15c-0.5,0.2-0.3,0.2,0,0.4l27.8-12.4c0.4-0.2,0.6-0.5,0.4-0.7v-2
				C131.8,49.3,131.2,49.1,130.7,49.4z"/>
			<path class="st2" d="M128.2,46.3l-25.5,17.6c-0.4,0.3-0.3,0.3,0,0.4l26.5-15.1c0.3-0.2,0.5-0.5,0.4-0.8l-0.2-2
				C129.3,46.1,128.8,46,128.2,46.3z"/>
		</g>
	</g>
</g>
<text transform="matrix(1 0 0 1 54.4727 174.0644)" class="st3 st4 st5">Rebari 12</text>
</svg>
