<?xml version="1.0" encoding="utf-8"?>
<!-- Generator: Adobe Illustrator 24.2.1, SVG Export Plug-In . SVG Version: 6.00 Build 0)  -->
<svg version="1.1" id="Foreground_Layer" xmlns="http://www.w3.org/2000/svg" xmlns:xlink="http://www.w3.org/1999/xlink" x="0px"
	 y="0px" viewBox="0 0 200 200" style="enable-background:new 0 0 200 200;" xml:space="preserve">
<style type="text/css">
	.st0{fill:#EA3323;}
	.st1{fill:#FFFFFF;}
	.st2{fill:#303030;}
	.st3{font-family:'ArialMT';}
	.st4{font-size:21px;}
</style>
<g>
	<circle class="st0" cx="100" cy="80" r="65"/>
	<g>
		<path class="st1" d="M102,60.8c2.7,0,5.3,0,8,0c0,10.5,0,21,0,31.5c-2,0-4,0-6,0c0-6.4,0-12.9,0-19.3c0,0-0.1,0-0.1,0
			c-2.3,6.4-4.5,12.9-6.8,19.3c-1.8,0-3.5,0-5.3,0c-2.3-6.5-4.5-13.1-6.8-19.6c0,0-0.1,0-0.1,0c0,6.5,0,13,0,19.5c-2,0-4,0-6,0
			c0-10.5,0-21,0-31.5c2.7,0,5.4,0,8.1,0c2.5,7.3,4.9,14.7,7.5,22.2C97,75.5,99.5,68.1,102,60.8z"/>
		<path class="st1" d="M154.7,93.4c-0.7,0.1-1.5,0.1-2.2,0.2c-1.8,0.1-3.5,0.2-5.3,0.3c-2,0.1-4,0.2-6.1,0.4
			c-1.3,0.1-2.6,0.2-3.9,0.3c-2.1,0.1-4.2,0.3-6.2,0.4c-1.2,0.1-2.5,0.2-3.7,0.2c-2.1,0.1-4.2,0.3-6.2,0.4c-1.3,0.1-2.6,0.2-3.9,0.3
			c-2.1,0.1-4.2,0.3-6.2,0.4c-1.2,0.1-2.5,0.2-3.7,0.2c-2.1,0.1-4.2,0.3-6.2,0.4c-1.3,0.1-2.6,0.2-3.9,0.3c-2.1,0.1-4.2,0.3-6.2,0.4
			c-1.3,0.1-2.6,0.2-3.9,0.3c-2,0.1-4.1,0.3-6.1,0.4c-1.3,0.1-2.5,0.2-3.8,0.2c-2.1,0.1-4.1,0.3-6.2,0.4c-1.3,0.1-2.5,0.2-3.8,0.2
			c-2.1,0.1-4.2,0.3-6.3,0.4c-1.3,0.1-2.6,0.2-3.9,0.2c-3.6,0.1-7.2,0.2-10.8,0.3c-0.2,0-0.3,0-0.5,0c0-1.6,0-3.1,0-4.6
			c0-0.3,0.3-0.6,0.4-0.9c1.8-2.9,3.5-5.8,5.3-8.7c1.7-2.8,3.5-5.7,5.2-8.5c2.2-3.5,4.3-7.1,6.5-10.6c0.1-0.2,0.2-0.3,0.3-0.6
			c-5.4,0-10.7,0-16,0c0-1.8,0-3.5,0-5.3c7.3,0,14.7,0,22.1,0c0,1.5,0,3,0,4.4c0,0.1,0,0.2-0.1,0.2c-1.7,2.8-3.3,5.5-5,8.3
			c-1.9,3.1-3.8,6.3-5.7,9.4c-1.6,2.6-3.2,5.2-4.8,7.7c-0.7,1.1-1.3,2.2-1.9,3.2c-0.1,0.2-0.3,0.5-0.6,0.7c0.2,0,0.5,0,0.5,0.1
			c0.1,0.4,0.4,0.2,0.7,0.2c1.2,0,2.4,0,3.7,0c2.6,0,5.3-0.1,7.9-0.1c2.5,0,5.1-0.1,7.6-0.1c2.6,0,5.3-0.1,7.9-0.1
			c2.5,0,5-0.1,7.5-0.1c2.7,0,5.4-0.1,8.1-0.1c2.2,0,4.4-0.1,6.7-0.1c2.9,0,5.9-0.1,8.8-0.1c2.5,0,5.1-0.1,7.6-0.1
			c2.6,0,5.3-0.1,7.9-0.1c2.5,0,5-0.1,7.6-0.1c2.7,0,5.3-0.1,8-0.1c2.5,0,5-0.1,7.6-0.1c1.6,0,3.3-0.1,4.9-0.1
			C154.3,93.3,154.5,93.3,154.7,93.4C154.7,93.4,154.7,93.4,154.7,93.4z"/>
		<path class="st1" d="M152.5,68.1c-1.6,0.6-3.1,1.1-4.4,1.6c-0.8-1.1-1.5-2.2-2.4-3.2c-1.2-1.3-2.7-1.9-4.5-2.2
			c-1.8-0.3-3.6-0.1-5.4,0.5c-2.3,0.9-3.8,2.5-4.7,4.7c-0.6,1.6-0.9,3.3-1,5c-0.2,3,0.1,5.8,1.3,8.5c1.3,3,3.7,4.7,6.9,5.2
			c3.9,0.6,7.4-1,9.5-4.6c0.3-0.5,0.6-1,0.9-1.6c1.5,0.6,3,1.2,4.5,1.8c-1,1.9-2,3.7-3.6,5.2c-1.9,1.7-4.1,2.8-6.6,3.1
			c-1.3,0.2-2.7,0.3-4,0.2c-3.3-0.1-6.4-1-9-3.1c-2.3-1.9-3.7-4.4-4.4-7.2c-0.6-2.2-0.9-4.5-0.7-6.9c0.1-3.1,0.6-6.1,2.2-8.9
			c1.6-2.8,3.9-4.5,6.9-5.5c2.5-0.9,5.1-0.9,7.7-0.7c2.3,0.1,4.4,0.9,6.3,2.1C150,63.8,151.4,65.8,152.5,68.1z"/>
		<path class="st1" d="M68.4,87.7c1.5,0,3,0,4.5,0c0,1.5,0,3,0,4.5c-1.5,0-2.9,0-4.5,0C68.4,90.7,68.4,89.2,68.4,87.7z"/>
		<path class="st1" d="M115.9,87.7c1.5,0,3,0,4.4,0c0,1.5,0,3,0,4.5c-1.5,0-2.9,0-4.4,0C115.9,90.7,115.9,89.2,115.9,87.7z"/>
	</g>
</g>
<text transform="matrix(1 0 0 1 36.4102 174.0644)" class="st2 st3 st4">ZMC Express</text>
</svg>
