<?xml version="1.0" encoding="utf-8"?>
<!-- Generator: Adobe Illustrator 24.2.1, SVG Export Plug-In . SVG Version: 6.00 Build 0)  -->
<svg version="1.1" id="Layer_1" xmlns="http://www.w3.org/2000/svg" xmlns:xlink="http://www.w3.org/1999/xlink" x="0px" y="0px"
	 viewBox="0 0 200 200" style="enable-background:new 0 0 200 200;" xml:space="preserve">
<style type="text/css">
	.st0{fill:#6D462F;stroke:#8C8C8C;stroke-width:0.5;stroke-miterlimit:10;}
	.st1{fill:#FFFFFF;}
	.st2{fill:#303030;}
	.st3{font-family:'ArialMT';}
	.st4{font-size:21px;}
</style>
<g>
	<path id="SVGID_1_" class="st0" d="M136.5,144.9h-73c-15.7,0-28.5-12.8-28.5-28.4v-73c0-15.7,12.8-28.5,28.5-28.5h73
		c15.7,0,28.5,12.8,28.5,28.5v73C165,132.2,152.2,144.9,136.5,144.9z"/>
</g>
<g id="_x35_0ea5e9a-e403-4acd-aa9e-5671d1975f17">
	<polygon class="st1" points="61.8,57.3 69.6,73.8 77.3,57.3 73.9,57.3 69.8,66.8 65.5,57.3 	"/>
	<polygon class="st1" points="129.4,74.5 133.1,74.5 133.1,60.2 138.1,60.2 138.1,57.3 124.4,57.3 124.4,60.2 129.4,60.2 	"/>
	<rect x="83.2" y="57.3" class="st1" width="3.6" height="17.2"/>
	<rect x="114.1" y="57.3" class="st1" width="3.6" height="17.2"/>
	<path class="st1" d="M105.9,66.6c-0.3-0.5-0.9-0.9-1.4-1c-0.7-0.3-1.4-0.7-2.2-1l-2.4-0.9c-0.5-0.2-0.9-0.3-1.2-0.7
		c-0.3-0.3-0.5-0.9-0.5-1.4s0.2-1,0.7-1.4c0.5-0.3,1-0.5,1.7-0.5s1.4,0.2,2,0.5c0.3,0.2,0.7,0.3,0.9,0.5l1.9-2l-0.3-0.2
		c-0.3-0.3-0.7-0.5-1.2-0.7c-0.5-0.2-1-0.3-1.5-0.5c-1.4-0.3-2.7-0.2-4.1,0.2c-0.7,0.2-1.2,0.5-1.7,0.9c-0.5,0.3-0.9,0.9-1.2,1.5
		c-0.3,0.7-0.5,1.4-0.5,2c0,0.5,0.2,1.2,0.3,1.7c0.2,0.5,0.5,1,0.9,1.4c0.3,0.3,0.9,0.7,1.2,1c0.5,0.3,1.2,0.5,1.7,0.7l2,0.7
		c0.5,0.2,1,0.3,1.5,0.7c0.5,0.3,0.7,0.9,0.7,1.5c0,0.7-0.3,1.4-0.9,1.7c-0.7,0.3-1.4,0.5-2,0.3c-0.9,0-1.9-0.2-2.6-0.7
		c-0.5-0.3-0.9-0.7-1.4-1l-2.6,1.9l0.5,0.5c0.5,0.3,0.9,0.7,1.4,1c0.7,0.3,1.4,0.5,2,0.7c0.9,0.2,1.7,0.3,2.6,0.3
		c1,0,1.9-0.2,2.9-0.3c0.7-0.2,1.4-0.5,1.9-1c0.5-0.3,0.9-1,1-1.5c0.2-0.7,0.3-1.4,0.3-2c0-0.5,0-1-0.2-1.5
		C106.4,67.5,106.2,67,105.9,66.6z"/>
	<path class="st1" d="M56.6,84h13.5v4.3h-8.5v3.1h8.5v3.9h-8.5v3.1h8.5v4.3H56.6V84z"/>
	<path class="st1" d="M130.6,84.2h4.9v14.1h7.8v4.1h-12.8V84.2z"/>
	<path class="st1" d="M110,93.2c0.7-0.3,1.2-0.9,1.7-1.4c0.5-0.9,0.7-1.7,0.7-2.7c0-0.7-0.2-1.5-0.5-2.2c-0.3-0.7-0.9-1.2-1.4-1.7
		c-0.7-0.5-1.4-0.7-2-1c-1-0.2-1.9-0.3-2.9-0.3h-8.7v18.6h8.7c1,0,2-0.2,2.9-0.3c0.9-0.2,1.5-0.5,2.2-1c0.7-0.5,1-1,1.4-1.7
		c0.3-0.7,0.5-1.4,0.5-2.2c0-1-0.2-1.9-0.7-2.7C111.3,94.1,110.6,93.5,110,93.2z M102.3,88.4h2.7c0.5,0,1,0.2,1.4,0.5
		c0.3,0.3,0.3,0.7,0.3,1.2s-0.2,0.9-0.5,1.2c-0.2,0.3-0.7,0.5-1.2,0.5h-2.7V88.4z M106.4,97.6c-0.3,0.3-0.9,0.5-1.4,0.5h-2.7v-3.4
		h2.7c0.5,0,1,0.2,1.4,0.5c0.3,0.3,0.5,0.7,0.5,1.2C106.9,96.8,106.7,97.3,106.4,97.6L106.4,97.6z"/>
	<path class="st1" d="M86.5,95.8c0.5-0.3,0.9-0.7,1.2-1c0.5-0.5,0.9-1.2,1.2-1.9c0.3-0.7,0.5-1.5,0.5-2.4c0-0.9-0.2-1.7-0.5-2.6
		c-0.3-0.9-0.9-1.5-1.5-2c-0.7-0.5-1.4-1-2.2-1.4c-0.9-0.3-1.7-0.5-2.6-0.5H75v18.6h4.6V97h1.9l4.6,5.8h6L86.5,95.8z M79.6,88.6h2.9
		c0.3,0,0.7,0,1,0.2c0.2,0,0.5,0.2,0.7,0.3c0.2,0.2,0.3,0.3,0.3,0.5c0.2,0.2,0.2,0.5,0.2,0.9c0,0.3,0,0.5-0.2,0.9
		c-0.2,0.2-0.2,0.3-0.3,0.5s-0.5,0.3-0.7,0.3c-0.3,0.2-0.7,0.2-1,0.2h-3.1L79.6,88.6z"/>
	<path class="st1" d="M121.5,87.2c-1,0.3-1.9,1.2-1.9,2.4v12.6h3.7V89.6C123.3,88.6,122.6,87.6,121.5,87.2z"/>
	<path class="st1" d="M117.3,84.4v17.9h1.5V89.6c0.2-1.4,1-2.6,2.4-3.1l0,0h0.3l0,0l0,0c1,0.3,1.7,1,2.2,1.9
		c0.2,0.3,0.3,0.9,0.3,1.2v12.6h1.5V84.4H117.3z"/>
</g>
<text transform="matrix(1 0 0 1 56.4312 173.6017)" class="st2 st3 st4">Visit Erbil</text>
</svg>
